<mxfile host="app.diagrams.net" modified="2022-08-15T06:50:38.380Z" agent="5.0 (Macintosh; Intel Mac OS X 10_15_7) AppleWebKit/537.36 (KHTML, like Gecko) Chrome/104.0.5112.81 Safari/537.36" etag="h49oTYDn__nIcLqPAktJ" version="20.2.3" type="github">
  <diagram id="3l7OyPNLYXVI05V4PFVh" name="Page-1">
    <mxGraphModel dx="1261" dy="1618" grid="1" gridSize="10" guides="1" tooltips="1" connect="1" arrows="1" fold="1" page="1" pageScale="1" pageWidth="1169" pageHeight="827" math="0" shadow="0">
      <root>
        <mxCell id="0" />
        <mxCell id="1" parent="0" />
        <mxCell id="vBjFkJAr70sqD34y-y18-3" value="" style="edgeStyle=orthogonalEdgeStyle;rounded=0;orthogonalLoop=1;jettySize=auto;html=1;" parent="1" source="vBjFkJAr70sqD34y-y18-1" target="vBjFkJAr70sqD34y-y18-2" edge="1">
          <mxGeometry relative="1" as="geometry" />
        </mxCell>
        <mxCell id="vBjFkJAr70sqD34y-y18-1" value="Start" style="strokeWidth=2;html=1;shape=mxgraph.flowchart.start_1;whiteSpace=wrap;" parent="1" vertex="1">
          <mxGeometry x="40" y="200" width="100" height="60" as="geometry" />
        </mxCell>
        <mxCell id="vBjFkJAr70sqD34y-y18-5" value="" style="edgeStyle=orthogonalEdgeStyle;rounded=0;orthogonalLoop=1;jettySize=auto;html=1;" parent="1" source="vBjFkJAr70sqD34y-y18-2" target="vBjFkJAr70sqD34y-y18-4" edge="1">
          <mxGeometry relative="1" as="geometry" />
        </mxCell>
        <mxCell id="vBjFkJAr70sqD34y-y18-2" value="Select table" style="whiteSpace=wrap;html=1;strokeWidth=2;" parent="1" vertex="1">
          <mxGeometry x="210" y="200" width="120" height="60" as="geometry" />
        </mxCell>
        <mxCell id="vBjFkJAr70sqD34y-y18-11" value="" style="edgeStyle=orthogonalEdgeStyle;rounded=0;orthogonalLoop=1;jettySize=auto;html=1;" parent="1" source="vBjFkJAr70sqD34y-y18-4" target="vBjFkJAr70sqD34y-y18-10" edge="1">
          <mxGeometry relative="1" as="geometry" />
        </mxCell>
        <mxCell id="vBjFkJAr70sqD34y-y18-4" value="Select menu" style="whiteSpace=wrap;html=1;strokeWidth=2;" parent="1" vertex="1">
          <mxGeometry x="350" y="120" width="120" height="60" as="geometry" />
        </mxCell>
        <mxCell id="vBjFkJAr70sqD34y-y18-13" value="" style="edgeStyle=orthogonalEdgeStyle;rounded=0;orthogonalLoop=1;jettySize=auto;html=1;" parent="1" source="vBjFkJAr70sqD34y-y18-10" target="vBjFkJAr70sqD34y-y18-12" edge="1">
          <mxGeometry relative="1" as="geometry" />
        </mxCell>
        <mxCell id="vBjFkJAr70sqD34y-y18-19" value="YES" style="edgeLabel;html=1;align=center;verticalAlign=middle;resizable=0;points=[];" parent="vBjFkJAr70sqD34y-y18-13" vertex="1" connectable="0">
          <mxGeometry x="-0.325" y="2" relative="1" as="geometry">
            <mxPoint as="offset" />
          </mxGeometry>
        </mxCell>
        <mxCell id="vBjFkJAr70sqD34y-y18-17" value="" style="edgeStyle=orthogonalEdgeStyle;rounded=0;orthogonalLoop=1;jettySize=auto;html=1;" parent="1" source="vBjFkJAr70sqD34y-y18-10" target="vBjFkJAr70sqD34y-y18-16" edge="1">
          <mxGeometry relative="1" as="geometry" />
        </mxCell>
        <mxCell id="vBjFkJAr70sqD34y-y18-18" value="NO" style="edgeLabel;html=1;align=center;verticalAlign=middle;resizable=0;points=[];" parent="vBjFkJAr70sqD34y-y18-17" vertex="1" connectable="0">
          <mxGeometry x="-0.4" relative="1" as="geometry">
            <mxPoint y="1" as="offset" />
          </mxGeometry>
        </mxCell>
        <mxCell id="vBjFkJAr70sqD34y-y18-10" value="Add addon?" style="rhombus;whiteSpace=wrap;html=1;strokeWidth=2;" parent="1" vertex="1">
          <mxGeometry x="580" y="110" width="80" height="80" as="geometry" />
        </mxCell>
        <mxCell id="vBjFkJAr70sqD34y-y18-20" style="edgeStyle=orthogonalEdgeStyle;rounded=0;orthogonalLoop=1;jettySize=auto;html=1;exitX=0;exitY=0.5;exitDx=0;exitDy=0;entryX=0;entryY=1;entryDx=0;entryDy=0;" parent="1" source="vBjFkJAr70sqD34y-y18-12" target="vBjFkJAr70sqD34y-y18-10" edge="1">
          <mxGeometry relative="1" as="geometry">
            <Array as="points">
              <mxPoint x="500" y="270" />
              <mxPoint x="500" y="170" />
            </Array>
          </mxGeometry>
        </mxCell>
        <mxCell id="vBjFkJAr70sqD34y-y18-21" style="edgeStyle=orthogonalEdgeStyle;rounded=0;orthogonalLoop=1;jettySize=auto;html=1;exitX=1;exitY=0.5;exitDx=0;exitDy=0;entryX=0.5;entryY=1;entryDx=0;entryDy=0;" parent="1" source="vBjFkJAr70sqD34y-y18-12" target="vBjFkJAr70sqD34y-y18-16" edge="1">
          <mxGeometry relative="1" as="geometry" />
        </mxCell>
        <mxCell id="vBjFkJAr70sqD34y-y18-12" value="Add addon" style="whiteSpace=wrap;html=1;strokeWidth=2;" parent="1" vertex="1">
          <mxGeometry x="560" y="240" width="120" height="60" as="geometry" />
        </mxCell>
        <mxCell id="vBjFkJAr70sqD34y-y18-25" value="" style="edgeStyle=orthogonalEdgeStyle;rounded=0;orthogonalLoop=1;jettySize=auto;html=1;" parent="1" source="vBjFkJAr70sqD34y-y18-16" target="vBjFkJAr70sqD34y-y18-24" edge="1">
          <mxGeometry relative="1" as="geometry" />
        </mxCell>
        <mxCell id="vBjFkJAr70sqD34y-y18-16" value="Add to cart" style="whiteSpace=wrap;html=1;strokeWidth=2;" parent="1" vertex="1">
          <mxGeometry x="740" y="120" width="120" height="60" as="geometry" />
        </mxCell>
        <mxCell id="vBjFkJAr70sqD34y-y18-35" value="" style="edgeStyle=orthogonalEdgeStyle;rounded=0;orthogonalLoop=1;jettySize=auto;html=1;" parent="1" source="vBjFkJAr70sqD34y-y18-22" target="vBjFkJAr70sqD34y-y18-34" edge="1">
          <mxGeometry relative="1" as="geometry" />
        </mxCell>
        <mxCell id="vBjFkJAr70sqD34y-y18-22" value="Confirm order" style="whiteSpace=wrap;html=1;strokeWidth=2;" parent="1" vertex="1">
          <mxGeometry x="920" y="120" width="120" height="60" as="geometry" />
        </mxCell>
        <mxCell id="vBjFkJAr70sqD34y-y18-26" style="edgeStyle=orthogonalEdgeStyle;rounded=0;orthogonalLoop=1;jettySize=auto;html=1;exitX=0;exitY=0.5;exitDx=0;exitDy=0;entryX=0.5;entryY=0;entryDx=0;entryDy=0;" parent="1" source="vBjFkJAr70sqD34y-y18-24" target="vBjFkJAr70sqD34y-y18-4" edge="1">
          <mxGeometry relative="1" as="geometry">
            <Array as="points">
              <mxPoint x="760" />
              <mxPoint x="410" />
            </Array>
          </mxGeometry>
        </mxCell>
        <mxCell id="vBjFkJAr70sqD34y-y18-27" value="YES" style="edgeLabel;html=1;align=center;verticalAlign=middle;resizable=0;points=[];" parent="vBjFkJAr70sqD34y-y18-26" vertex="1" connectable="0">
          <mxGeometry x="-0.3913" y="2" relative="1" as="geometry">
            <mxPoint as="offset" />
          </mxGeometry>
        </mxCell>
        <mxCell id="vBjFkJAr70sqD34y-y18-28" style="edgeStyle=orthogonalEdgeStyle;rounded=0;orthogonalLoop=1;jettySize=auto;html=1;exitX=1;exitY=0.5;exitDx=0;exitDy=0;entryX=0.5;entryY=0;entryDx=0;entryDy=0;" parent="1" source="vBjFkJAr70sqD34y-y18-24" target="vBjFkJAr70sqD34y-y18-22" edge="1">
          <mxGeometry relative="1" as="geometry">
            <Array as="points">
              <mxPoint x="840" />
              <mxPoint x="980" />
            </Array>
          </mxGeometry>
        </mxCell>
        <mxCell id="vBjFkJAr70sqD34y-y18-29" value="NO" style="edgeLabel;html=1;align=center;verticalAlign=middle;resizable=0;points=[];" parent="vBjFkJAr70sqD34y-y18-28" vertex="1" connectable="0">
          <mxGeometry x="-0.7486" y="1" relative="1" as="geometry">
            <mxPoint x="49" y="1" as="offset" />
          </mxGeometry>
        </mxCell>
        <mxCell id="vBjFkJAr70sqD34y-y18-24" value="New order?" style="rhombus;whiteSpace=wrap;html=1;strokeWidth=2;" parent="1" vertex="1">
          <mxGeometry x="760" y="-39" width="80" height="80" as="geometry" />
        </mxCell>
        <mxCell id="vBjFkJAr70sqD34y-y18-55" style="edgeStyle=orthogonalEdgeStyle;rounded=0;orthogonalLoop=1;jettySize=auto;html=1;exitX=0;exitY=0.75;exitDx=0;exitDy=0;exitPerimeter=0;entryX=0.75;entryY=0;entryDx=0;entryDy=0;" parent="1" source="vBjFkJAr70sqD34y-y18-30" target="vBjFkJAr70sqD34y-y18-16" edge="1">
          <mxGeometry relative="1" as="geometry" />
        </mxCell>
        <mxCell id="vBjFkJAr70sqD34y-y18-30" value="Order #1&lt;br&gt;Order #2&lt;br&gt;Order #3&lt;br&gt;&lt;br&gt;" style="strokeWidth=2;html=1;shape=mxgraph.flowchart.document2;whiteSpace=wrap;size=0.25;fillColor=#fff2cc;strokeColor=#d6b656;" parent="1" vertex="1">
          <mxGeometry x="830" y="41" width="120" height="59" as="geometry" />
        </mxCell>
        <mxCell id="vBjFkJAr70sqD34y-y18-32" value="Print kitchen / Update kitchen app" style="whiteSpace=wrap;html=1;strokeWidth=2;" parent="1" vertex="1">
          <mxGeometry x="920" y="560" width="120" height="60" as="geometry" />
        </mxCell>
        <mxCell id="vBjFkJAr70sqD34y-y18-38" style="edgeStyle=orthogonalEdgeStyle;rounded=0;orthogonalLoop=1;jettySize=auto;html=1;exitX=0.5;exitY=1;exitDx=0;exitDy=0;entryX=0.5;entryY=0;entryDx=0;entryDy=0;" parent="1" source="vBjFkJAr70sqD34y-y18-34" target="vBjFkJAr70sqD34y-y18-32" edge="1">
          <mxGeometry relative="1" as="geometry" />
        </mxCell>
        <mxCell id="vBjFkJAr70sqD34y-y18-39" value="NO" style="edgeLabel;html=1;align=center;verticalAlign=middle;resizable=0;points=[];" parent="vBjFkJAr70sqD34y-y18-38" vertex="1" connectable="0">
          <mxGeometry x="0.3711" y="2" relative="1" as="geometry">
            <mxPoint x="-2" y="-127" as="offset" />
          </mxGeometry>
        </mxCell>
        <mxCell id="eRqvRhQwkzj9iYlvWfdD-3" value="" style="edgeStyle=orthogonalEdgeStyle;rounded=0;orthogonalLoop=1;jettySize=auto;html=1;" edge="1" parent="1" source="vBjFkJAr70sqD34y-y18-34" target="eRqvRhQwkzj9iYlvWfdD-2">
          <mxGeometry relative="1" as="geometry" />
        </mxCell>
        <mxCell id="eRqvRhQwkzj9iYlvWfdD-12" value="YES" style="edgeLabel;html=1;align=center;verticalAlign=middle;resizable=0;points=[];" vertex="1" connectable="0" parent="eRqvRhQwkzj9iYlvWfdD-3">
          <mxGeometry x="-0.1407" y="1" relative="1" as="geometry">
            <mxPoint x="-1" as="offset" />
          </mxGeometry>
        </mxCell>
        <mxCell id="vBjFkJAr70sqD34y-y18-34" value="Proceed&amp;nbsp;&lt;br&gt;Payment?" style="rhombus;whiteSpace=wrap;html=1;strokeWidth=2;" parent="1" vertex="1">
          <mxGeometry x="915" y="250" width="130" height="80" as="geometry" />
        </mxCell>
        <mxCell id="vBjFkJAr70sqD34y-y18-50" value="" style="edgeStyle=orthogonalEdgeStyle;rounded=0;orthogonalLoop=1;jettySize=auto;html=1;" parent="1" source="vBjFkJAr70sqD34y-y18-40" target="vBjFkJAr70sqD34y-y18-49" edge="1">
          <mxGeometry relative="1" as="geometry" />
        </mxCell>
        <mxCell id="vBjFkJAr70sqD34y-y18-40" value="Select which order to pay?&amp;nbsp;&lt;br&gt;Order #1&lt;br&gt;Order #2&lt;br&gt;" style="whiteSpace=wrap;html=1;strokeWidth=2;" parent="1" vertex="1">
          <mxGeometry x="1444" y="260" width="120" height="60" as="geometry" />
        </mxCell>
        <mxCell id="vBjFkJAr70sqD34y-y18-46" style="edgeStyle=orthogonalEdgeStyle;rounded=0;orthogonalLoop=1;jettySize=auto;html=1;exitX=0;exitY=0.5;exitDx=0;exitDy=0;entryX=1;entryY=0.5;entryDx=0;entryDy=0;" parent="1" source="vBjFkJAr70sqD34y-y18-44" target="vBjFkJAr70sqD34y-y18-32" edge="1">
          <mxGeometry relative="1" as="geometry" />
        </mxCell>
        <mxCell id="vBjFkJAr70sqD34y-y18-47" value="YES" style="edgeLabel;html=1;align=center;verticalAlign=middle;resizable=0;points=[];" parent="vBjFkJAr70sqD34y-y18-46" vertex="1" connectable="0">
          <mxGeometry x="-0.3988" y="1" relative="1" as="geometry">
            <mxPoint as="offset" />
          </mxGeometry>
        </mxCell>
        <mxCell id="eRqvRhQwkzj9iYlvWfdD-9" style="edgeStyle=orthogonalEdgeStyle;rounded=0;orthogonalLoop=1;jettySize=auto;html=1;exitX=0.5;exitY=0;exitDx=0;exitDy=0;entryX=1;entryY=1;entryDx=0;entryDy=0;" edge="1" parent="1" source="vBjFkJAr70sqD34y-y18-44" target="eRqvRhQwkzj9iYlvWfdD-2">
          <mxGeometry relative="1" as="geometry">
            <Array as="points">
              <mxPoint x="1278" y="550" />
            </Array>
          </mxGeometry>
        </mxCell>
        <mxCell id="eRqvRhQwkzj9iYlvWfdD-10" value="NO" style="edgeLabel;html=1;align=center;verticalAlign=middle;resizable=0;points=[];" vertex="1" connectable="0" parent="eRqvRhQwkzj9iYlvWfdD-9">
          <mxGeometry x="0.0677" y="3" relative="1" as="geometry">
            <mxPoint as="offset" />
          </mxGeometry>
        </mxCell>
        <mxCell id="vBjFkJAr70sqD34y-y18-44" value="Payment&lt;br&gt;success?" style="rhombus;whiteSpace=wrap;html=1;strokeWidth=2;fillColor=#d5e8d4;strokeColor=#82b366;" parent="1" vertex="1">
          <mxGeometry x="1240" y="550" width="80" height="80" as="geometry" />
        </mxCell>
        <mxCell id="vBjFkJAr70sqD34y-y18-51" style="edgeStyle=orthogonalEdgeStyle;rounded=0;orthogonalLoop=1;jettySize=auto;html=1;exitX=0.5;exitY=1;exitDx=0;exitDy=0;entryX=1;entryY=0.5;entryDx=0;entryDy=0;" parent="1" source="vBjFkJAr70sqD34y-y18-49" target="vBjFkJAr70sqD34y-y18-44" edge="1">
          <mxGeometry relative="1" as="geometry" />
        </mxCell>
        <mxCell id="vBjFkJAr70sqD34y-y18-49" value="Select payment method" style="whiteSpace=wrap;html=1;strokeWidth=2;" parent="1" vertex="1">
          <mxGeometry x="1634" y="260" width="120" height="60" as="geometry" />
        </mxCell>
        <mxCell id="vBjFkJAr70sqD34y-y18-54" style="edgeStyle=orthogonalEdgeStyle;rounded=0;orthogonalLoop=1;jettySize=auto;html=1;exitX=0;exitY=0.75;exitDx=0;exitDy=0;exitPerimeter=0;" parent="1" source="vBjFkJAr70sqD34y-y18-53" target="vBjFkJAr70sqD34y-y18-40" edge="1">
          <mxGeometry relative="1" as="geometry" />
        </mxCell>
        <mxCell id="vBjFkJAr70sqD34y-y18-53" value="Order #1 and Order #2&lt;br&gt;will have same no of acc_order order no.&amp;nbsp;&lt;br&gt;&lt;br&gt;" style="strokeWidth=2;html=1;shape=mxgraph.flowchart.document2;whiteSpace=wrap;size=0.25;fillColor=#fff2cc;strokeColor=#d6b656;" parent="1" vertex="1">
          <mxGeometry x="1464" y="100" width="250" height="109" as="geometry" />
        </mxCell>
        <mxCell id="eRqvRhQwkzj9iYlvWfdD-4" style="edgeStyle=orthogonalEdgeStyle;rounded=0;orthogonalLoop=1;jettySize=auto;html=1;exitX=1;exitY=0.5;exitDx=0;exitDy=0;entryX=0;entryY=0.5;entryDx=0;entryDy=0;" edge="1" parent="1" source="eRqvRhQwkzj9iYlvWfdD-2" target="vBjFkJAr70sqD34y-y18-40">
          <mxGeometry relative="1" as="geometry" />
        </mxCell>
        <mxCell id="eRqvRhQwkzj9iYlvWfdD-11" value="YES" style="edgeLabel;html=1;align=center;verticalAlign=middle;resizable=0;points=[];" vertex="1" connectable="0" parent="eRqvRhQwkzj9iYlvWfdD-4">
          <mxGeometry x="-0.0299" y="-1" relative="1" as="geometry">
            <mxPoint as="offset" />
          </mxGeometry>
        </mxCell>
        <mxCell id="eRqvRhQwkzj9iYlvWfdD-8" style="edgeStyle=orthogonalEdgeStyle;rounded=0;orthogonalLoop=1;jettySize=auto;html=1;exitX=0.5;exitY=1;exitDx=0;exitDy=0;entryX=0.5;entryY=0;entryDx=0;entryDy=0;entryPerimeter=0;" edge="1" parent="1" source="eRqvRhQwkzj9iYlvWfdD-2" target="eRqvRhQwkzj9iYlvWfdD-7">
          <mxGeometry relative="1" as="geometry" />
        </mxCell>
        <mxCell id="eRqvRhQwkzj9iYlvWfdD-2" value="Has unpaid&amp;nbsp;&lt;br&gt;orders?" style="rhombus;whiteSpace=wrap;html=1;strokeWidth=2;fillColor=#f8cecc;strokeColor=#b85450;" vertex="1" parent="1">
          <mxGeometry x="1180" y="250" width="130" height="80" as="geometry" />
        </mxCell>
        <mxCell id="eRqvRhQwkzj9iYlvWfdD-7" value="End" style="strokeWidth=2;html=1;shape=mxgraph.flowchart.terminator;whiteSpace=wrap;fillColor=#647687;fontColor=#ffffff;strokeColor=#314354;" vertex="1" parent="1">
          <mxGeometry x="670" y="560" width="100" height="60" as="geometry" />
        </mxCell>
      </root>
    </mxGraphModel>
  </diagram>
</mxfile>
